<?xml version="1.0" encoding="UTF-8" standalone="no"?>
<!-- Created with Inkscape (http://www.inkscape.org/) -->

<svg
   width="100"
   height="100"
   viewBox="0 0 26.458333 26.458333"
   version="1.1"
   id="svg5"
   xml:space="preserve"
   sodipodi:docname="u-own-logo.svg"
   inkscape:version="1.2.1 (9c6d41e410, 2022-07-14)"
   inkscape:export-filename="main-logo.svg"
   inkscape:export-xdpi="96"
   inkscape:export-ydpi="96"
   xmlns:inkscape="http://www.inkscape.org/namespaces/inkscape"
   xmlns:sodipodi="http://sodipodi.sourceforge.net/DTD/sodipodi-0.dtd"
   xmlns:xlink="http://www.w3.org/1999/xlink"
   xmlns="http://www.w3.org/2000/svg"
   xmlns:svg="http://www.w3.org/2000/svg"><sodipodi:namedview
     id="namedview21"
     pagecolor="#505050"
     bordercolor="#eeeeee"
     borderopacity="1"
     inkscape:showpageshadow="0"
     inkscape:pageopacity="0"
     inkscape:pagecheckerboard="0"
     inkscape:deskcolor="#505050"
     showgrid="false"
     inkscape:zoom="1.668772"
     inkscape:cx="20.973506"
     inkscape:cy="67.714463"
     inkscape:window-width="1617"
     inkscape:window-height="985"
     inkscape:window-x="113"
     inkscape:window-y="23"
     inkscape:window-maximized="0"
     inkscape:current-layer="g2392" /><defs
     id="defs2"><linearGradient
       inkscape:collect="always"
       id="linearGradient2398"><stop
         style="stop-color:#626044;stop-opacity:1;"
         offset="0"
         id="stop2394" /><stop
         style="stop-color:#36664a;stop-opacity:1;"
         offset="1"
         id="stop2396" /></linearGradient><linearGradient
       id="linearGradient20609"><stop
         style="stop-color:#00222c;stop-opacity:0.2017291;"
         offset="0"
         id="stop20605" /><stop
         style="stop-color:#006128;stop-opacity:0.3775216;"
         offset="1"
         id="stop20607" /></linearGradient><linearGradient
       id="linearGradient18406"><stop
         style="stop-color:#ffd875;stop-opacity:1;"
         offset="0"
         id="stop18402" /><stop
         style="stop-color:#006128;stop-opacity:1;"
         offset="1"
         id="stop18404" /></linearGradient><linearGradient
       xlink:href="#linearGradient18406"
       id="linearGradient18408"
       x1="-0.042641308"
       y1="13.252405"
       x2="26.547749"
       y2="13.252405"
       gradientUnits="userSpaceOnUse"
       spreadMethod="repeat" /><linearGradient
       xlink:href="#linearGradient20609"
       id="linearGradient20603"
       gradientUnits="userSpaceOnUse"
       x1="-0.042641308"
       y1="13.252405"
       x2="26.547749"
       y2="13.252405"
       spreadMethod="reflect" /><linearGradient
       inkscape:collect="always"
       xlink:href="#linearGradient2398"
       id="linearGradient2404"
       x1="-0.042641308"
       y1="13.252405"
       x2="26.547749"
       y2="13.252405"
       gradientUnits="userSpaceOnUse" /></defs><g
     id="layer3"
     style="display:none;opacity:1;mix-blend-mode:normal;fill:url(#linearGradient2404);fill-opacity:1;fill-rule:nonzero"
     transform="rotate(90,13.252479,13.229093)"><rect
       style="display:inline;opacity:1;fill:url(#linearGradient2404);fill-opacity:1;fill-rule:nonzero;stroke:none;stroke-width:1.70338;stroke-linejoin:round;stroke-miterlimit:100;stroke-dasharray:none;stroke-opacity:1"
       id="rect16079"
       width="26.590389"
       height="26.421383"
       x="-0.042641308"
       y="0.041713059" /></g><g
     inkscape:groupmode="layer"
     id="layer5"
     inkscape:label="haft-bill"
     style="fill:#8de08f;fill-opacity:1" /><g
     inkscape:groupmode="layer"
     id="layer6"
     inkscape:label="coin"><g
       id="g2392"
       transform="translate(4.9999998e-8,-0.23591699)"><path
         id="path16279-9-2-3"
         style="fill:#58b55e;fill-opacity:1;stroke-width:0.0528602"
         d="M 3.2235759,8.5726032 V 20.339843 c 0,1.892816 1.4951939,3.431832 3.3346801,3.431832 h 13.340271 c 1.839486,0 3.33623,-1.539016 3.33623,-3.431832 V 8.5726032 h -2.675289 a 7.3329244,7.3329244 0 0 1 0.0026,0.1870687 7.3329244,7.3329244 0 0 1 -7.332886,7.3328861 7.3329244,7.3329244 0 0 1 -7.3328851,-7.3328861 7.3329244,7.3329244 0 0 1 0.00672,-0.1870687 z M 6.558256,16.908012 c 1.8394852,0 3.3362303,1.539019 3.3362303,3.431831 H 6.558256 Z m 13.340271,0 v 3.431831 h -3.334681 c 0,-1.892812 1.495196,-3.431831 3.334681,-3.431831 z" /><path
         id="path555-2"
         style="fill:#ff9955;stroke-width:3.53125;stroke-linejoin:round;stroke-miterlimit:100;paint-order:markers fill stroke"
         d="m 13.229464,3.158492 a 5.5220101,5.5220101 0 0 0 -5.522405,5.5218032 5.5220101,5.5220101 0 0 0 5.522405,5.5224058 5.5220101,5.5220101 0 0 0 5.52181,-5.5224058 5.5220101,5.5220101 0 0 0 -5.52181,-5.5218032 z m 0.01358,1.3984186 c 0.293386,0 0.530019,0.2305297 0.530019,0.5156477 v 0.5749359 c 0.02652,0.00321 0.05133,0.00659 0.07785,0.011319 0.0065,0.00163 0.01222,0.00137 0.01842,0.00305 l 0.795335,0.1419452 c 0.288402,0.051529 0.479457,0.3202133 0.426417,0.5988875 -0.05306,0.2786701 -0.330101,0.4653761 -0.61685,0.413832 L 13.687282,6.6763862 c -0.518804,-0.07409 -0.976836,-0.023998 -1.298404,0.1000157 -0.321558,0.1240319 -0.450476,0.2949033 -0.48031,0.4527639 -0.03314,0.172364 -0.0083,0.2691943 0.01973,0.3287932 0.02981,0.062819 0.09103,0.1336646 0.212019,0.2126075 0.270177,0.1723627 0.684701,0.2848901 1.221745,0.4234182 l 0.04793,0.01319 c 0.474056,0.1224262 1.0543,0.2705564 1.48526,0.5443985 0.235381,0.1497866 0.457726,0.3525188 0.5953,0.6360258 0.140892,0.2883405 0.170641,0.6103331 0.106,0.953439 -0.114361,0.612127 -0.548895,1.021277 -1.087593,1.235521 -0.227101,0.0902 -0.474146,0.148286 -0.736041,0.177275 v 0.534815 c 0,0.285116 -0.23662,0.515643 -0.530021,0.515643 -0.29338,0 -0.530618,-0.230522 -0.530618,-0.515643 v -0.562385 c -0.0065,-0.0016 -0.01463,-0.0014 -0.02169,-0.0028 h -0.0032 c -0.40459,-0.06123 -1.069608,-0.230125 -1.517143,-0.423424 -0.266863,-0.115976 -0.387644,-0.420401 -0.268306,-0.679744 0.119342,-0.259347 0.43265,-0.377101 0.699512,-0.261121 0.346423,0.149796 0.916453,0.298023 1.246298,0.347959 0.528756,0.07572 0.965027,0.03197 1.260076,-0.08563 0.280119,-0.111132 0.407312,-0.272039 0.443778,-0.465341 0.03153,-0.1707409 0.0065,-0.2691948 -0.02169,-0.3287917 -0.03153,-0.06453 -0.09234,-0.1349589 -0.215015,-0.2139068 C 14.043343,9.4410743 13.627342,9.327955 13.088647,9.1894219 l -0.0467,-0.011319 C 12.569624,9.0555576 11.989514,8.9057111 11.558557,8.6318688 11.323174,8.4820822 11.102628,8.2775523 10.965051,7.9940454 10.82585,7.7057075 10.797552,7.383713 10.863834,7.040607 10.983176,6.4252677 11.457646,6.0260606 11.996343,5.8182629 12.216793,5.7328829 12.458422,5.6748297 12.712025,5.640989 V 5.072041 c 0,-0.2851193 0.23725,-0.5150492 0.530616,-0.5150492 z" /></g></g></svg>
